<mxfile host="app.diagrams.net" modified="2023-09-11T06:35:36.524Z" agent="Mozilla/5.0 (Windows NT 10.0; Win64; x64) AppleWebKit/537.36 (KHTML, like Gecko) Chrome/116.0.0.0 Safari/537.36 Edg/116.0.1938.69" etag="iFHHG-Z_6uWZBii57Ed1" version="21.7.2" type="github">
  <diagram name="第 1 页" id="uUw7RkFNdO7T1sBHk_0z">
    <mxGraphModel dx="873" dy="566" grid="1" gridSize="10" guides="1" tooltips="1" connect="1" arrows="1" fold="1" page="1" pageScale="2" pageWidth="827" pageHeight="1169" math="1" shadow="0">
      <root>
        <mxCell id="0" />
        <mxCell id="1" parent="0" />
        <mxCell id="5v9gTzPmGPVGLBIcObEu-130" value="" style="shape=partialRectangle;whiteSpace=wrap;html=1;top=0;bottom=0;fillColor=none;" vertex="1" parent="1">
          <mxGeometry x="1140" y="493" width="50" height="20" as="geometry" />
        </mxCell>
        <mxCell id="5v9gTzPmGPVGLBIcObEu-67" value="" style="verticalLabelPosition=bottom;verticalAlign=top;html=1;shape=mxgraph.basic.cone;strokeWidth=2;" vertex="1" parent="1">
          <mxGeometry x="549.65" y="820" width="240" height="280" as="geometry" />
        </mxCell>
        <mxCell id="gayCr19osn1YnOFI7T3c-87" value="" style="shape=partialRectangle;whiteSpace=wrap;html=1;top=0;bottom=0;fillColor=none;rotation=348.5;" parent="1" vertex="1">
          <mxGeometry x="270" y="633" width="183" height="17" as="geometry" />
        </mxCell>
        <mxCell id="gayCr19osn1YnOFI7T3c-2" value="" style="endArrow=none;html=1;rounded=0;strokeWidth=2;" parent="1" edge="1">
          <mxGeometry width="50" height="50" relative="1" as="geometry">
            <mxPoint x="429.65" y="180" as="sourcePoint" />
            <mxPoint x="549.65" y="300" as="targetPoint" />
          </mxGeometry>
        </mxCell>
        <mxCell id="gayCr19osn1YnOFI7T3c-3" value="" style="endArrow=none;html=1;rounded=0;fillColor=#ffe6cc;strokeColor=#d79b00;strokeWidth=2;" parent="1" edge="1">
          <mxGeometry width="50" height="50" relative="1" as="geometry">
            <mxPoint x="150" y="380" as="sourcePoint" />
            <mxPoint x="450" y="320" as="targetPoint" />
          </mxGeometry>
        </mxCell>
        <mxCell id="gayCr19osn1YnOFI7T3c-4" value="" style="endArrow=none;html=1;rounded=0;strokeWidth=2;" parent="1" edge="1">
          <mxGeometry width="50" height="50" relative="1" as="geometry">
            <mxPoint x="249.65" y="360" as="sourcePoint" />
            <mxPoint x="429.65" y="180" as="targetPoint" />
          </mxGeometry>
        </mxCell>
        <mxCell id="gayCr19osn1YnOFI7T3c-6" value="" style="endArrow=none;dashed=1;html=1;rounded=0;strokeWidth=2;" parent="1" edge="1">
          <mxGeometry width="50" height="50" relative="1" as="geometry">
            <mxPoint x="429.65" y="180" as="sourcePoint" />
            <mxPoint x="429.65" y="180" as="targetPoint" />
          </mxGeometry>
        </mxCell>
        <mxCell id="gayCr19osn1YnOFI7T3c-8" value="" style="endArrow=none;dashed=1;html=1;rounded=0;fillColor=#f5f5f5;strokeColor=#666666;strokeWidth=2;" parent="1" edge="1">
          <mxGeometry width="50" height="50" relative="1" as="geometry">
            <mxPoint x="150" y="380" as="sourcePoint" />
            <mxPoint x="800" y="380" as="targetPoint" />
          </mxGeometry>
        </mxCell>
        <mxCell id="gayCr19osn1YnOFI7T3c-16" value="" style="endArrow=none;dashed=1;html=1;rounded=0;strokeWidth=2;" parent="1" edge="1">
          <mxGeometry width="50" height="50" relative="1" as="geometry">
            <mxPoint x="429.65" y="320" as="sourcePoint" />
            <mxPoint x="429.65" y="180" as="targetPoint" />
          </mxGeometry>
        </mxCell>
        <mxCell id="gayCr19osn1YnOFI7T3c-17" value="" style="endArrow=none;html=1;rounded=0;strokeWidth=2;" parent="1" edge="1">
          <mxGeometry width="50" height="50" relative="1" as="geometry">
            <mxPoint x="449.65" y="320" as="sourcePoint" />
            <mxPoint x="589.65" y="180" as="targetPoint" />
          </mxGeometry>
        </mxCell>
        <mxCell id="gayCr19osn1YnOFI7T3c-18" value="" style="endArrow=none;html=1;rounded=0;strokeWidth=2;startSize=5;" parent="1" edge="1">
          <mxGeometry width="50" height="50" relative="1" as="geometry">
            <mxPoint x="589.65" y="180" as="sourcePoint" />
            <mxPoint x="683" y="274" as="targetPoint" />
            <Array as="points">
              <mxPoint x="639.65" y="230" />
            </Array>
          </mxGeometry>
        </mxCell>
        <mxCell id="gayCr19osn1YnOFI7T3c-23" value="" style="shape=sumEllipse;perimeter=ellipsePerimeter;whiteSpace=wrap;html=1;backgroundOutline=1;" parent="1" vertex="1">
          <mxGeometry x="419.65" y="160" width="20" height="20" as="geometry" />
        </mxCell>
        <mxCell id="gayCr19osn1YnOFI7T3c-24" value="" style="shape=sumEllipse;perimeter=ellipsePerimeter;whiteSpace=wrap;html=1;backgroundOutline=1;" parent="1" vertex="1">
          <mxGeometry x="579.65" y="160" width="20" height="20" as="geometry" />
        </mxCell>
        <mxCell id="gayCr19osn1YnOFI7T3c-28" value="" style="shape=partialRectangle;whiteSpace=wrap;html=1;top=0;bottom=0;fillColor=none;rotation=349;" parent="1" vertex="1">
          <mxGeometry x="248.55" y="329.9" width="305.1" height="10.1" as="geometry" />
        </mxCell>
        <mxCell id="gayCr19osn1YnOFI7T3c-30" value="" style="endArrow=classic;startArrow=classic;html=1;rounded=0;entryX=1;entryY=0.5;entryDx=0;entryDy=0;exitX=0;exitY=0.75;exitDx=0;exitDy=0;" parent="1" edge="1">
          <mxGeometry width="50" height="50" relative="1" as="geometry">
            <mxPoint x="251.59456587838466" y="370.6965208828971" as="sourcePoint" />
            <mxPoint x="550.6072268349411" y="310.0020877553081" as="targetPoint" />
          </mxGeometry>
        </mxCell>
        <mxCell id="gayCr19osn1YnOFI7T3c-32" value="W" style="edgeLabel;html=1;align=center;verticalAlign=middle;resizable=0;points=[];fontStyle=1;fontFamily=Times New Roman;fontSize=13;" parent="gayCr19osn1YnOFI7T3c-30" vertex="1" connectable="0">
          <mxGeometry x="0.0398" relative="1" as="geometry">
            <mxPoint as="offset" />
          </mxGeometry>
        </mxCell>
        <mxCell id="gayCr19osn1YnOFI7T3c-34" value="θ" style="edgeLabel;html=1;align=center;verticalAlign=middle;resizable=0;points=[];fontStyle=1;fontFamily=Times New Roman;fontSize=15;" parent="gayCr19osn1YnOFI7T3c-30" vertex="1" connectable="0">
          <mxGeometry x="0.0398" relative="1" as="geometry">
            <mxPoint x="10" y="-129" as="offset" />
          </mxGeometry>
        </mxCell>
        <mxCell id="gayCr19osn1YnOFI7T3c-41" value="α" style="edgeLabel;html=1;align=center;verticalAlign=middle;resizable=0;points=[];fontStyle=1;fontFamily=Times New Roman;fontSize=15;fontColor=#000000;" parent="gayCr19osn1YnOFI7T3c-30" vertex="1" connectable="0">
          <mxGeometry x="0.0398" relative="1" as="geometry">
            <mxPoint x="-207" y="31" as="offset" />
          </mxGeometry>
        </mxCell>
        <mxCell id="gayCr19osn1YnOFI7T3c-42" value="θ" style="edgeLabel;html=1;align=center;verticalAlign=middle;resizable=0;points=[];fontStyle=1;fontFamily=Times New Roman;fontSize=15;" parent="gayCr19osn1YnOFI7T3c-30" vertex="1" connectable="0">
          <mxGeometry x="0.0398" relative="1" as="geometry">
            <mxPoint x="173" y="-129" as="offset" />
          </mxGeometry>
        </mxCell>
        <mxCell id="gayCr19osn1YnOFI7T3c-100" value="\(\frac{\theta}{2}\)" style="edgeLabel;html=1;align=center;verticalAlign=middle;resizable=0;points=[];fontStyle=1;fontFamily=Times New Roman;fontSize=20;" parent="gayCr19osn1YnOFI7T3c-30" vertex="1" connectable="0">
          <mxGeometry x="0.0398" relative="1" as="geometry">
            <mxPoint x="63" y="181" as="offset" />
          </mxGeometry>
        </mxCell>
        <mxCell id="gayCr19osn1YnOFI7T3c-122" value="α" style="edgeLabel;html=1;align=center;verticalAlign=middle;resizable=0;points=[];fontStyle=1;fontFamily=Times New Roman;fontSize=15;fontColor=#000000;" parent="gayCr19osn1YnOFI7T3c-30" vertex="1" connectable="0">
          <mxGeometry x="0.0398" relative="1" as="geometry">
            <mxPoint x="-77" y="301" as="offset" />
          </mxGeometry>
        </mxCell>
        <mxCell id="gayCr19osn1YnOFI7T3c-141" value="\(\frac{\pi}{2}-\frac{\theta}{2}+\alpha&lt;br style=&quot;font-size: 17px;&quot;&gt;\)" style="edgeLabel;html=1;align=center;verticalAlign=middle;resizable=0;points=[];fontStyle=1;fontFamily=Times New Roman;fontSize=17;" parent="gayCr19osn1YnOFI7T3c-30" vertex="1" connectable="0">
          <mxGeometry x="0.0398" relative="1" as="geometry">
            <mxPoint x="93" y="241" as="offset" />
          </mxGeometry>
        </mxCell>
        <mxCell id="gayCr19osn1YnOFI7T3c-142" value="\(\frac{\theta}{2}\)" style="edgeLabel;html=1;align=center;verticalAlign=middle;resizable=0;points=[];fontStyle=1;fontFamily=Times New Roman;fontSize=20;" parent="gayCr19osn1YnOFI7T3c-30" vertex="1" connectable="0">
          <mxGeometry x="0.0398" relative="1" as="geometry">
            <mxPoint x="23" y="181" as="offset" />
          </mxGeometry>
        </mxCell>
        <mxCell id="gayCr19osn1YnOFI7T3c-144" value="\(\frac{\pi}{2}+\alpha&lt;br style=&quot;font-size: 17px;&quot;&gt;\)" style="edgeLabel;html=1;align=center;verticalAlign=middle;resizable=0;points=[];fontStyle=1;fontFamily=Times New Roman;fontSize=17;" parent="gayCr19osn1YnOFI7T3c-30" vertex="1" connectable="0">
          <mxGeometry x="0.0398" relative="1" as="geometry">
            <mxPoint x="13" y="246" as="offset" />
          </mxGeometry>
        </mxCell>
        <mxCell id="gayCr19osn1YnOFI7T3c-145" value="\(\frac{\pi}{2}-\alpha&lt;br style=&quot;font-size: 17px;&quot;&gt;-\frac{\theta}{2}&lt;br style=&quot;font-size: 17px;&quot;&gt;\)" style="edgeLabel;html=1;align=center;verticalAlign=middle;resizable=0;points=[];fontStyle=1;fontFamily=Times New Roman;fontSize=17;" parent="gayCr19osn1YnOFI7T3c-30" vertex="1" connectable="0">
          <mxGeometry x="0.0398" relative="1" as="geometry">
            <mxPoint x="-47" y="271" as="offset" />
          </mxGeometry>
        </mxCell>
        <mxCell id="gayCr19osn1YnOFI7T3c-147" value="\(\frac{\pi}{2}-\frac{\theta}{2}&lt;br style=&quot;font-size: 18px;&quot;&gt;\)" style="edgeLabel;html=1;align=center;verticalAlign=middle;resizable=0;points=[];fontStyle=1;fontFamily=Times New Roman;fontSize=18;" parent="gayCr19osn1YnOFI7T3c-30" vertex="1" connectable="0">
          <mxGeometry x="0.0398" relative="1" as="geometry">
            <mxPoint x="163" y="291" as="offset" />
          </mxGeometry>
        </mxCell>
        <mxCell id="gayCr19osn1YnOFI7T3c-149" value="D" style="edgeLabel;html=1;align=center;verticalAlign=middle;resizable=0;points=[];fontStyle=1;fontFamily=Times New Roman;fontSize=15;" parent="gayCr19osn1YnOFI7T3c-30" vertex="1" connectable="0">
          <mxGeometry x="0.0398" relative="1" as="geometry">
            <mxPoint x="33" y="-89" as="offset" />
          </mxGeometry>
        </mxCell>
        <mxCell id="gayCr19osn1YnOFI7T3c-150" value="D" style="edgeLabel;html=1;align=center;verticalAlign=middle;resizable=0;points=[];fontStyle=1;fontFamily=Times New Roman;fontSize=15;" parent="gayCr19osn1YnOFI7T3c-30" vertex="1" connectable="0">
          <mxGeometry x="0.0398" relative="1" as="geometry">
            <mxPoint x="193" y="-99" as="offset" />
          </mxGeometry>
        </mxCell>
        <mxCell id="gayCr19osn1YnOFI7T3c-151" value="D" style="edgeLabel;html=1;align=center;verticalAlign=middle;resizable=0;points=[];fontStyle=0;fontFamily=Times New Roman;fontSize=15;" parent="gayCr19osn1YnOFI7T3c-30" vertex="1" connectable="0">
          <mxGeometry x="0.0398" relative="1" as="geometry">
            <mxPoint x="53" y="211" as="offset" />
          </mxGeometry>
        </mxCell>
        <mxCell id="5v9gTzPmGPVGLBIcObEu-29" value="\(\beta-\frac{\pi}{2}&lt;br style=&quot;font-size: 22px;&quot;&gt;\)" style="edgeLabel;html=1;align=center;verticalAlign=middle;resizable=0;points=[];fontStyle=1;fontFamily=Times New Roman;fontSize=22;" vertex="1" connectable="0" parent="gayCr19osn1YnOFI7T3c-30">
          <mxGeometry x="0.0398" relative="1" as="geometry">
            <mxPoint x="533" y="211" as="offset" />
          </mxGeometry>
        </mxCell>
        <mxCell id="5v9gTzPmGPVGLBIcObEu-78" value="\(\frac{\theta}{2}\)" style="edgeLabel;html=1;align=center;verticalAlign=middle;resizable=0;points=[];fontStyle=1;fontFamily=Times New Roman;fontSize=20;" vertex="1" connectable="0" parent="gayCr19osn1YnOFI7T3c-30">
          <mxGeometry x="0.0398" relative="1" as="geometry">
            <mxPoint x="253" y="531" as="offset" />
          </mxGeometry>
        </mxCell>
        <mxCell id="5v9gTzPmGPVGLBIcObEu-80" value="D" style="edgeLabel;html=1;align=center;verticalAlign=middle;resizable=0;points=[];fontStyle=0;fontFamily=Times New Roman;fontSize=20;" vertex="1" connectable="0" parent="gayCr19osn1YnOFI7T3c-30">
          <mxGeometry x="0.0398" relative="1" as="geometry">
            <mxPoint x="283" y="601" as="offset" />
          </mxGeometry>
        </mxCell>
        <mxCell id="5v9gTzPmGPVGLBIcObEu-122" value="\(\frac{\pi}{2}+\alpha&lt;br style=&quot;font-size: 22px;&quot;&gt;\)" style="edgeLabel;html=1;align=center;verticalAlign=middle;resizable=0;points=[];fontStyle=1;fontFamily=Times New Roman;fontSize=22;labelBackgroundColor=default;" vertex="1" connectable="0" parent="gayCr19osn1YnOFI7T3c-30">
          <mxGeometry x="0.0398" relative="1" as="geometry">
            <mxPoint x="213" y="681" as="offset" />
          </mxGeometry>
        </mxCell>
        <mxCell id="gayCr19osn1YnOFI7T3c-33" value="" style="endArrow=none;dashed=1;html=1;rounded=0;strokeWidth=2;" parent="1" edge="1">
          <mxGeometry width="50" height="50" relative="1" as="geometry">
            <mxPoint x="589.65" y="290" as="sourcePoint" />
            <mxPoint x="589.43" y="180" as="targetPoint" />
          </mxGeometry>
        </mxCell>
        <mxCell id="gayCr19osn1YnOFI7T3c-39" value="" style="verticalLabelPosition=bottom;verticalAlign=top;html=1;shape=mxgraph.basic.arc;startAngle=0.21593118408918777;endAngle=0.2516930738240978;strokeWidth=2;fillColor=#fa6800;strokeColor=#C73500;fontColor=#000000;" parent="1" vertex="1">
          <mxGeometry x="110" y="339.9" width="80" height="80" as="geometry" />
        </mxCell>
        <mxCell id="gayCr19osn1YnOFI7T3c-43" value="" style="shape=partialRectangle;whiteSpace=wrap;html=1;top=0;bottom=0;fillColor=none;rotation=348;" parent="1" vertex="1">
          <mxGeometry x="448.75" y="290.1" width="100" height="19.66" as="geometry" />
        </mxCell>
        <mxCell id="gayCr19osn1YnOFI7T3c-44" value="" style="endArrow=classic;startArrow=classic;html=1;rounded=0;exitX=0;exitY=0.75;exitDx=0;exitDy=0;strokeColor=#000000;" parent="1" edge="1">
          <mxGeometry width="50" height="50" relative="1" as="geometry">
            <mxPoint x="449.7445658783846" y="309.65652088289715" as="sourcePoint" />
            <mxPoint x="549.74" y="289.40000000000003" as="targetPoint" />
          </mxGeometry>
        </mxCell>
        <mxCell id="gayCr19osn1YnOFI7T3c-45" value="η" style="edgeLabel;html=1;align=center;verticalAlign=middle;resizable=0;points=[];fontStyle=1;fontFamily=Times New Roman;fontSize=15;fontColor=#000000;" parent="gayCr19osn1YnOFI7T3c-44" vertex="1" connectable="0">
          <mxGeometry x="0.0398" relative="1" as="geometry">
            <mxPoint as="offset" />
          </mxGeometry>
        </mxCell>
        <mxCell id="gayCr19osn1YnOFI7T3c-56" value="" style="endArrow=none;html=1;rounded=0;entryX=1;entryY=0;entryDx=0;entryDy=0;strokeWidth=2;fillColor=#cce5ff;strokeColor=#0000FF;" parent="1" target="gayCr19osn1YnOFI7T3c-28" edge="1">
          <mxGeometry width="50" height="50" relative="1" as="geometry">
            <mxPoint x="448.75" y="320" as="sourcePoint" />
            <mxPoint x="498.75" y="270" as="targetPoint" />
          </mxGeometry>
        </mxCell>
        <mxCell id="gayCr19osn1YnOFI7T3c-58" value="" style="endArrow=none;html=1;rounded=0;fillColor=#ffe6cc;strokeColor=#d79b00;strokeWidth=2;" parent="1" edge="1">
          <mxGeometry width="50" height="50" relative="1" as="geometry">
            <mxPoint x="548.75" y="300" as="sourcePoint" />
            <mxPoint x="800" y="250" as="targetPoint" />
          </mxGeometry>
        </mxCell>
        <mxCell id="gayCr19osn1YnOFI7T3c-60" value="" style="endArrow=none;html=1;rounded=0;strokeWidth=2;" parent="1" edge="1">
          <mxGeometry width="50" height="50" relative="1" as="geometry">
            <mxPoint x="449.06" y="470" as="sourcePoint" />
            <mxPoint x="569.06" y="590" as="targetPoint" />
          </mxGeometry>
        </mxCell>
        <mxCell id="gayCr19osn1YnOFI7T3c-61" value="" style="endArrow=none;html=1;rounded=0;strokeWidth=2;" parent="1" edge="1">
          <mxGeometry width="50" height="50" relative="1" as="geometry">
            <mxPoint x="269.06" y="650" as="sourcePoint" />
            <mxPoint x="449.06" y="470" as="targetPoint" />
          </mxGeometry>
        </mxCell>
        <mxCell id="gayCr19osn1YnOFI7T3c-62" value="" style="endArrow=none;dashed=1;html=1;rounded=0;strokeWidth=2;" parent="1" edge="1">
          <mxGeometry width="50" height="50" relative="1" as="geometry">
            <mxPoint x="449.06" y="470" as="sourcePoint" />
            <mxPoint x="449.06" y="470" as="targetPoint" />
          </mxGeometry>
        </mxCell>
        <mxCell id="gayCr19osn1YnOFI7T3c-64" value="" style="endArrow=none;dashed=1;html=1;rounded=0;strokeWidth=2;exitX=1;exitY=0;exitDx=0;exitDy=0;fillColor=#cce5ff;strokeColor=#36393d;" parent="1" source="gayCr19osn1YnOFI7T3c-87" edge="1">
          <mxGeometry width="50" height="50" relative="1" as="geometry">
            <mxPoint x="449" y="650" as="sourcePoint" />
            <mxPoint x="449.06" y="470" as="targetPoint" />
          </mxGeometry>
        </mxCell>
        <mxCell id="gayCr19osn1YnOFI7T3c-74" value="" style="endArrow=none;html=1;rounded=0;fillColor=#ffe6cc;strokeColor=#000000;strokeWidth=2;" parent="1" edge="1">
          <mxGeometry width="50" height="50" relative="1" as="geometry">
            <mxPoint x="269.09" y="650" as="sourcePoint" />
            <mxPoint x="569.09" y="590" as="targetPoint" />
          </mxGeometry>
        </mxCell>
        <mxCell id="gayCr19osn1YnOFI7T3c-75" value="" style="endArrow=classic;startArrow=classic;html=1;rounded=0;entryX=1;entryY=1;entryDx=0;entryDy=0;exitX=0;exitY=0.75;exitDx=0;exitDy=0;" parent="1" edge="1">
          <mxGeometry width="50" height="50" relative="1" as="geometry">
            <mxPoint x="271.7945658783847" y="659.1865208828973" as="sourcePoint" />
            <mxPoint x="451.2112916640572" y="623.8097825172377" as="targetPoint" />
          </mxGeometry>
        </mxCell>
        <mxCell id="gayCr19osn1YnOFI7T3c-76" value="W1" style="edgeLabel;html=1;align=center;verticalAlign=middle;resizable=0;points=[];fontStyle=1;fontFamily=Times New Roman;fontSize=13;" parent="gayCr19osn1YnOFI7T3c-75" vertex="1" connectable="0">
          <mxGeometry x="0.0398" relative="1" as="geometry">
            <mxPoint as="offset" />
          </mxGeometry>
        </mxCell>
        <mxCell id="gayCr19osn1YnOFI7T3c-89" value="" style="shape=partialRectangle;whiteSpace=wrap;html=1;top=0;bottom=0;fillColor=none;rotation=348.5;" parent="1" vertex="1">
          <mxGeometry x="449.62" y="603.18" width="121" height="10" as="geometry" />
        </mxCell>
        <mxCell id="gayCr19osn1YnOFI7T3c-92" value="" style="endArrow=classic;startArrow=classic;html=1;rounded=0;entryX=1;entryY=0.75;entryDx=0;entryDy=0;exitX=1;exitY=0.5;exitDx=0;exitDy=0;" parent="1" source="gayCr19osn1YnOFI7T3c-87" target="gayCr19osn1YnOFI7T3c-89" edge="1">
          <mxGeometry width="50" height="50" relative="1" as="geometry">
            <mxPoint x="450.92456587838467" y="620.6065208828973" as="sourcePoint" />
            <mxPoint x="569.3222843016457" y="595.7578634908637" as="targetPoint" />
          </mxGeometry>
        </mxCell>
        <mxCell id="gayCr19osn1YnOFI7T3c-93" value="W1" style="edgeLabel;html=1;align=center;verticalAlign=middle;resizable=0;points=[];fontStyle=1;fontFamily=Times New Roman;fontSize=13;" parent="gayCr19osn1YnOFI7T3c-92" vertex="1" connectable="0">
          <mxGeometry x="0.0398" relative="1" as="geometry">
            <mxPoint as="offset" />
          </mxGeometry>
        </mxCell>
        <mxCell id="gayCr19osn1YnOFI7T3c-99" value="W2" style="edgeLabel;html=1;align=center;verticalAlign=middle;resizable=0;points=[];fontFamily=Times New Roman;fontStyle=1" parent="gayCr19osn1YnOFI7T3c-92" vertex="1" connectable="0">
          <mxGeometry x="0.0459" y="1" relative="1" as="geometry">
            <mxPoint as="offset" />
          </mxGeometry>
        </mxCell>
        <mxCell id="gayCr19osn1YnOFI7T3c-101" value="" style="endArrow=none;dashed=1;html=1;rounded=0;fillColor=#f5f5f5;strokeColor=#666666;strokeWidth=2;" parent="1" edge="1">
          <mxGeometry width="50" height="50" relative="1" as="geometry">
            <mxPoint x="270" y="650" as="sourcePoint" />
            <mxPoint x="630" y="650" as="targetPoint" />
          </mxGeometry>
        </mxCell>
        <mxCell id="gayCr19osn1YnOFI7T3c-104" value="" style="endArrow=none;dashed=1;html=1;rounded=0;fillColor=#f5f5f5;strokeColor=#666666;strokeWidth=2;" parent="1" edge="1">
          <mxGeometry width="50" height="50" relative="1" as="geometry">
            <mxPoint x="570.62" y="590" as="sourcePoint" />
            <mxPoint x="630" y="650" as="targetPoint" />
          </mxGeometry>
        </mxCell>
        <mxCell id="gayCr19osn1YnOFI7T3c-105" value="" style="verticalLabelPosition=bottom;verticalAlign=top;html=1;shape=mxgraph.basic.arc;startAngle=0.20378109535992697;endAngle=0.23764615319419308;strokeWidth=2;fillColor=#000000;strokeColor=#000000;fontColor=#000000;" parent="1" vertex="1">
          <mxGeometry x="230" y="613.1800000000001" width="80" height="80" as="geometry" />
        </mxCell>
        <mxCell id="gayCr19osn1YnOFI7T3c-125" value="" style="verticalLabelPosition=bottom;verticalAlign=top;html=1;shape=mxgraph.basic.arc;startAngle=0.9984085036175459;endAngle=0.25953786211791813;rotation=45;direction=south;strokeWidth=2;" parent="1" vertex="1">
          <mxGeometry x="409.65" y="160" width="40" height="40" as="geometry" />
        </mxCell>
        <mxCell id="gayCr19osn1YnOFI7T3c-126" value="" style="verticalLabelPosition=bottom;verticalAlign=top;html=1;shape=mxgraph.basic.arc;startAngle=0.9984085036175459;endAngle=0.25953786211791813;rotation=45;direction=south;strokeWidth=2;" parent="1" vertex="1">
          <mxGeometry x="570.62" y="160" width="40" height="40" as="geometry" />
        </mxCell>
        <mxCell id="gayCr19osn1YnOFI7T3c-127" value="" style="verticalLabelPosition=bottom;verticalAlign=top;html=1;shape=mxgraph.basic.arc;startAngle=0.12353990387095107;endAngle=0.25953786211791813;rotation=0;direction=south;strokeWidth=2;" parent="1" vertex="1">
          <mxGeometry x="425.73" y="444.89" width="50" height="55" as="geometry" />
        </mxCell>
        <mxCell id="gayCr19osn1YnOFI7T3c-128" value="" style="verticalLabelPosition=bottom;verticalAlign=top;html=1;shape=mxgraph.basic.arc;startAngle=0.07505994886438067;endAngle=0.25953786211791813;rotation=135;direction=south;strokeWidth=2;" parent="1" vertex="1">
          <mxGeometry x="549.65" y="573.18" width="30" height="30" as="geometry" />
        </mxCell>
        <mxCell id="gayCr19osn1YnOFI7T3c-139" value="" style="verticalLabelPosition=bottom;verticalAlign=top;html=1;shape=mxgraph.basic.arc;startAngle=0.02441817550781652;endAngle=0.13245493099852496;rotation=35;strokeWidth=2;" parent="1" vertex="1">
          <mxGeometry x="250" y="630" width="40" height="40" as="geometry" />
        </mxCell>
        <mxCell id="gayCr19osn1YnOFI7T3c-143" value="" style="verticalLabelPosition=bottom;verticalAlign=top;html=1;shape=mxgraph.basic.arc;startAngle=0.10952167276676723;endAngle=0.35931042396184654;rotation=135;direction=south;strokeWidth=2;" parent="1" vertex="1">
          <mxGeometry x="435" y="600" width="30" height="30" as="geometry" />
        </mxCell>
        <mxCell id="gayCr19osn1YnOFI7T3c-146" value="" style="verticalLabelPosition=bottom;verticalAlign=top;html=1;shape=mxgraph.basic.arc;startAngle=0.10329085125898092;endAngle=0.25953786211791813;rotation=135;direction=south;strokeWidth=2;" parent="1" vertex="1">
          <mxGeometry x="610.62" y="633" width="30" height="30" as="geometry" />
        </mxCell>
        <mxCell id="gayCr19osn1YnOFI7T3c-148" value="" style="endArrow=none;html=1;rounded=0;" parent="1" edge="1">
          <mxGeometry width="50" height="50" relative="1" as="geometry">
            <mxPoint x="460" y="650" as="sourcePoint" />
            <mxPoint x="450" y="640" as="targetPoint" />
            <Array as="points">
              <mxPoint x="460" y="640" />
            </Array>
          </mxGeometry>
        </mxCell>
        <mxCell id="gayCr19osn1YnOFI7T3c-152" value="" style="endArrow=none;dashed=1;html=1;rounded=0;fillColor=#f5f5f5;strokeColor=#666666;strokeWidth=2;" parent="1" edge="1">
          <mxGeometry width="50" height="50" relative="1" as="geometry">
            <mxPoint x="449.62" y="613.18" as="sourcePoint" />
            <mxPoint x="450" y="650" as="targetPoint" />
          </mxGeometry>
        </mxCell>
        <mxCell id="5v9gTzPmGPVGLBIcObEu-1" value="" style="endArrow=classic;html=1;rounded=0;strokeWidth=2;" edge="1" parent="1">
          <mxGeometry width="50" height="50" relative="1" as="geometry">
            <mxPoint x="1010" y="730" as="sourcePoint" />
            <mxPoint x="1410" y="730" as="targetPoint" />
          </mxGeometry>
        </mxCell>
        <mxCell id="5v9gTzPmGPVGLBIcObEu-2" value="" style="endArrow=classic;html=1;rounded=0;strokeWidth=2;" edge="1" parent="1">
          <mxGeometry width="50" height="50" relative="1" as="geometry">
            <mxPoint x="1010" y="730" as="sourcePoint" />
            <mxPoint x="1010" y="410" as="targetPoint" />
          </mxGeometry>
        </mxCell>
        <mxCell id="5v9gTzPmGPVGLBIcObEu-7" value="" style="endArrow=classic;html=1;rounded=0;" edge="1" parent="1">
          <mxGeometry width="50" height="50" relative="1" as="geometry">
            <mxPoint x="1010" y="730" as="sourcePoint" />
            <mxPoint x="1010" y="730" as="targetPoint" />
          </mxGeometry>
        </mxCell>
        <mxCell id="5v9gTzPmGPVGLBIcObEu-9" value="" style="endArrow=none;html=1;rounded=0;dashed=1;dashPattern=8 8;strokeWidth=2;fillColor=#dae8fc;gradientColor=#7ea6e0;strokeColor=#6c8ebf;" edge="1" parent="1">
          <mxGeometry width="50" height="50" relative="1" as="geometry">
            <mxPoint x="830" y="730" as="sourcePoint" />
            <mxPoint x="1010" y="730" as="targetPoint" />
          </mxGeometry>
        </mxCell>
        <mxCell id="5v9gTzPmGPVGLBIcObEu-10" value="" style="endArrow=none;html=1;rounded=0;fillColor=#dae8fc;gradientColor=#7ea6e0;strokeColor=#3333FF;strokeWidth=2;" edge="1" parent="1">
          <mxGeometry width="50" height="50" relative="1" as="geometry">
            <mxPoint x="1010" y="510" as="sourcePoint" />
            <mxPoint x="900" y="730" as="targetPoint" />
          </mxGeometry>
        </mxCell>
        <mxCell id="5v9gTzPmGPVGLBIcObEu-11" value="" style="endArrow=none;html=1;rounded=0;strokeWidth=2;strokeColor=#3333FF;" edge="1" parent="1">
          <mxGeometry width="50" height="50" relative="1" as="geometry">
            <mxPoint x="1010" y="510" as="sourcePoint" />
            <mxPoint x="1350" y="510" as="targetPoint" />
          </mxGeometry>
        </mxCell>
        <mxCell id="5v9gTzPmGPVGLBIcObEu-12" value="" style="endArrow=none;html=1;rounded=0;strokeWidth=2;fillColor=#dae8fc;gradientColor=#7ea6e0;strokeColor=#3333FF;" edge="1" parent="1">
          <mxGeometry width="50" height="50" relative="1" as="geometry">
            <mxPoint x="1350" y="510" as="sourcePoint" />
            <mxPoint x="1240" y="730" as="targetPoint" />
          </mxGeometry>
        </mxCell>
        <mxCell id="5v9gTzPmGPVGLBIcObEu-13" value="" style="endArrow=none;html=1;rounded=0;dashed=1;dashPattern=8 8;fillColor=#dae8fc;gradientColor=#7ea6e0;strokeColor=#6c8ebf;strokeWidth=2;" edge="1" parent="1">
          <mxGeometry width="50" height="50" relative="1" as="geometry">
            <mxPoint x="1350" y="510" as="sourcePoint" />
            <mxPoint x="1350" y="730" as="targetPoint" />
          </mxGeometry>
        </mxCell>
        <mxCell id="5v9gTzPmGPVGLBIcObEu-14" value="" style="endArrow=none;html=1;rounded=0;strokeWidth=2;strokeColor=#3333FF;" edge="1" parent="1">
          <mxGeometry width="50" height="50" relative="1" as="geometry">
            <mxPoint x="900" y="730" as="sourcePoint" />
            <mxPoint x="1240" y="730" as="targetPoint" />
          </mxGeometry>
        </mxCell>
        <mxCell id="5v9gTzPmGPVGLBIcObEu-15" value="" style="endArrow=none;html=1;rounded=0;fillColor=#dae8fc;gradientColor=#7ea6e0;strokeColor=#000000;strokeWidth=4;startArrow=classic;startFill=1;" edge="1" parent="1">
          <mxGeometry width="50" height="50" relative="1" as="geometry">
            <mxPoint x="1080" y="510" as="sourcePoint" />
            <mxPoint x="970" y="730" as="targetPoint" />
          </mxGeometry>
        </mxCell>
        <mxCell id="5v9gTzPmGPVGLBIcObEu-16" value="" style="endArrow=classic;html=1;rounded=0;fillColor=#dae8fc;gradientColor=#7ea6e0;strokeColor=#000000;strokeWidth=4;startArrow=none;startFill=0;endFill=1;" edge="1" parent="1">
          <mxGeometry width="50" height="50" relative="1" as="geometry">
            <mxPoint x="1140" y="510.00000000000006" as="sourcePoint" />
            <mxPoint x="1030" y="730" as="targetPoint" />
          </mxGeometry>
        </mxCell>
        <mxCell id="5v9gTzPmGPVGLBIcObEu-17" value="" style="endArrow=none;html=1;rounded=0;fillColor=#dae8fc;gradientColor=#7ea6e0;strokeColor=#000000;strokeWidth=4;startArrow=classic;startFill=1;" edge="1" parent="1">
          <mxGeometry width="50" height="50" relative="1" as="geometry">
            <mxPoint x="1190" y="510" as="sourcePoint" />
            <mxPoint x="1080" y="730" as="targetPoint" />
          </mxGeometry>
        </mxCell>
        <mxCell id="5v9gTzPmGPVGLBIcObEu-18" value="" style="strokeWidth=2;html=1;shape=mxgraph.flowchart.start_2;whiteSpace=wrap;rotation=-180;fillColor=#f5f5f5;gradientColor=#4D4D4D;strokeColor=none;" vertex="1" parent="1">
          <mxGeometry x="1170" y="610" width="5" height="5" as="geometry" />
        </mxCell>
        <mxCell id="5v9gTzPmGPVGLBIcObEu-19" value="" style="strokeWidth=2;html=1;shape=mxgraph.flowchart.start_2;whiteSpace=wrap;rotation=-180;fillColor=#f5f5f5;gradientColor=#4D4D4D;strokeColor=none;" vertex="1" parent="1">
          <mxGeometry x="1190" y="610" width="5" height="5" as="geometry" />
        </mxCell>
        <mxCell id="5v9gTzPmGPVGLBIcObEu-24" value="" style="strokeWidth=2;html=1;shape=mxgraph.flowchart.start_2;whiteSpace=wrap;rotation=-180;fillColor=#f5f5f5;gradientColor=#4D4D4D;strokeColor=none;" vertex="1" parent="1">
          <mxGeometry x="1210" y="610" width="5" height="5" as="geometry" />
        </mxCell>
        <mxCell id="5v9gTzPmGPVGLBIcObEu-25" value="" style="strokeWidth=2;html=1;shape=mxgraph.flowchart.start_2;whiteSpace=wrap;rotation=-180;fillColor=#f5f5f5;gradientColor=#4D4D4D;strokeColor=none;" vertex="1" parent="1">
          <mxGeometry x="1230" y="610" width="5" height="5" as="geometry" />
        </mxCell>
        <mxCell id="5v9gTzPmGPVGLBIcObEu-28" value="" style="verticalLabelPosition=bottom;verticalAlign=top;html=1;shape=mxgraph.basic.arc;startAngle=0.38068169024690895;endAngle=0.46615650948336834;rotation=35;strokeWidth=3;" vertex="1" parent="1">
          <mxGeometry x="960" y="470" width="90" height="90" as="geometry" />
        </mxCell>
        <mxCell id="5v9gTzPmGPVGLBIcObEu-35" value="" style="shape=partialRectangle;whiteSpace=wrap;html=1;top=0;bottom=0;fillColor=none;rotation=25;strokeWidth=2;" vertex="1" parent="1">
          <mxGeometry x="1014.59" y="481.68" width="62" height="48.59" as="geometry" />
        </mxCell>
        <mxCell id="5v9gTzPmGPVGLBIcObEu-30" value="" style="endArrow=none;html=1;rounded=0;strokeWidth=2;targetPerimeterSpacing=8;" edge="1" parent="1">
          <mxGeometry width="50" height="50" relative="1" as="geometry">
            <mxPoint x="1010" y="510" as="sourcePoint" />
            <mxPoint x="1066" y="538" as="targetPoint" />
          </mxGeometry>
        </mxCell>
        <mxCell id="5v9gTzPmGPVGLBIcObEu-32" value="" style="shape=partialRectangle;whiteSpace=wrap;html=1;bottom=0;right=0;fillColor=none;rotation=25;strokeWidth=2;" vertex="1" parent="1">
          <mxGeometry x="1059.51" y="524.32" width="9.53" height="10" as="geometry" />
        </mxCell>
        <mxCell id="5v9gTzPmGPVGLBIcObEu-40" value="" style="endArrow=classic;startArrow=classic;html=1;rounded=0;" edge="1" parent="1">
          <mxGeometry width="50" height="50" relative="1" as="geometry">
            <mxPoint x="1023" y="482" as="sourcePoint" />
            <mxPoint x="1077" y="508" as="targetPoint" />
          </mxGeometry>
        </mxCell>
        <mxCell id="5v9gTzPmGPVGLBIcObEu-44" value="&lt;font style=&quot;font-size: 15px;&quot; face=&quot;Times New Roman&quot;&gt;&lt;b&gt;W&lt;sub&gt;1&lt;/sub&gt;&lt;/b&gt;&lt;/font&gt;" style="edgeLabel;html=1;align=center;verticalAlign=middle;resizable=0;points=[];" vertex="1" connectable="0" parent="5v9gTzPmGPVGLBIcObEu-40">
          <mxGeometry x="0.0407" relative="1" as="geometry">
            <mxPoint as="offset" />
          </mxGeometry>
        </mxCell>
        <mxCell id="5v9gTzPmGPVGLBIcObEu-47" value="" style="verticalLabelPosition=bottom;verticalAlign=top;html=1;shape=mxgraph.flowchart.on-page_reference;fillColor=#000000;" vertex="1" parent="1">
          <mxGeometry x="1074" y="503" width="10" height="10" as="geometry" />
        </mxCell>
        <mxCell id="5v9gTzPmGPVGLBIcObEu-51" value="&lt;font style=&quot;font-size: 17px;&quot; face=&quot;Times New Roman&quot;&gt;&lt;b style=&quot;font-size: 17px;&quot;&gt;(x&lt;sub style=&quot;font-size: 17px;&quot;&gt;1&lt;/sub&gt;，2）&lt;/b&gt;&lt;/font&gt;" style="text;strokeColor=none;align=center;fillColor=none;html=1;verticalAlign=middle;whiteSpace=wrap;rounded=0;fontSize=17;" vertex="1" parent="1">
          <mxGeometry x="1059.51" y="472.89" width="96" height="27" as="geometry" />
        </mxCell>
        <mxCell id="5v9gTzPmGPVGLBIcObEu-52" value="" style="endArrow=none;html=1;rounded=0;strokeWidth=2;targetPerimeterSpacing=8;" edge="1" parent="1">
          <mxGeometry width="50" height="50" relative="1" as="geometry">
            <mxPoint x="1059.51" y="550" as="sourcePoint" />
            <mxPoint x="1109" y="574" as="targetPoint" />
          </mxGeometry>
        </mxCell>
        <mxCell id="5v9gTzPmGPVGLBIcObEu-53" value="" style="shape=partialRectangle;whiteSpace=wrap;html=1;bottom=0;right=0;fillColor=none;rotation=25;strokeWidth=2;" vertex="1" parent="1">
          <mxGeometry x="1100" y="560" width="9.53" height="10" as="geometry" />
        </mxCell>
        <mxCell id="5v9gTzPmGPVGLBIcObEu-54" value="" style="endArrow=classic;startArrow=classic;html=1;rounded=0;exitX=0;exitY=0.25;exitDx=0;exitDy=0;" edge="1" parent="1">
          <mxGeometry width="50" height="50" relative="1" as="geometry">
            <mxPoint x="1050" y="570" as="sourcePoint" />
            <mxPoint x="1097" y="593" as="targetPoint" />
          </mxGeometry>
        </mxCell>
        <mxCell id="5v9gTzPmGPVGLBIcObEu-55" value="&lt;font face=&quot;Times New Roman&quot; style=&quot;font-size: 17px;&quot;&gt;&lt;span style=&quot;font-size: 17px;&quot;&gt;&lt;b style=&quot;font-size: 17px;&quot;&gt;d&lt;/b&gt;&lt;/span&gt;&lt;/font&gt;" style="edgeLabel;html=1;align=center;verticalAlign=middle;resizable=0;points=[];fontSize=17;" vertex="1" connectable="0" parent="5v9gTzPmGPVGLBIcObEu-54">
          <mxGeometry x="0.0407" relative="1" as="geometry">
            <mxPoint x="-4" y="-2" as="offset" />
          </mxGeometry>
        </mxCell>
        <mxCell id="5v9gTzPmGPVGLBIcObEu-58" value="&lt;font style=&quot;font-size: 17px;&quot; face=&quot;Times New Roman&quot;&gt;&lt;b style=&quot;font-size: 17px;&quot;&gt;(x&lt;sub&gt;0&lt;/sub&gt;，0）&lt;/b&gt;&lt;/font&gt;" style="text;strokeColor=none;align=center;fillColor=none;html=1;verticalAlign=middle;whiteSpace=wrap;rounded=0;fontSize=17;" vertex="1" parent="1">
          <mxGeometry x="930" y="735" width="90" height="30" as="geometry" />
        </mxCell>
        <mxCell id="5v9gTzPmGPVGLBIcObEu-59" value="" style="verticalLabelPosition=bottom;verticalAlign=top;html=1;shape=mxgraph.flowchart.on-page_reference;fillColor=#000000;" vertex="1" parent="1">
          <mxGeometry x="964" y="725" width="10" height="10" as="geometry" />
        </mxCell>
        <mxCell id="5v9gTzPmGPVGLBIcObEu-61" value="&lt;font style=&quot;font-size: 17px;&quot; face=&quot;Times New Roman&quot;&gt;&lt;b style=&quot;font-size: 17px;&quot;&gt;x&lt;/b&gt;&lt;/font&gt;" style="text;strokeColor=none;align=center;fillColor=none;html=1;verticalAlign=middle;whiteSpace=wrap;rounded=0;fontSize=17;" vertex="1" parent="1">
          <mxGeometry x="1360" y="735" width="90" height="30" as="geometry" />
        </mxCell>
        <mxCell id="5v9gTzPmGPVGLBIcObEu-62" value="&lt;font style=&quot;font-size: 17px;&quot; face=&quot;Times New Roman&quot;&gt;&lt;b style=&quot;font-size: 17px;&quot;&gt;y&lt;/b&gt;&lt;/font&gt;" style="text;strokeColor=none;align=center;fillColor=none;html=1;verticalAlign=middle;whiteSpace=wrap;rounded=0;fontSize=17;" vertex="1" parent="1">
          <mxGeometry x="974" y="414.89" width="40" height="30" as="geometry" />
        </mxCell>
        <mxCell id="5v9gTzPmGPVGLBIcObEu-66" value="" style="endArrow=classic;html=1;rounded=0;strokeWidth=4;endFill=1;" edge="1" parent="1">
          <mxGeometry width="50" height="50" relative="1" as="geometry">
            <mxPoint x="1030" y="729.5" as="sourcePoint" />
            <mxPoint x="1080" y="730" as="targetPoint" />
          </mxGeometry>
        </mxCell>
        <mxCell id="5v9gTzPmGPVGLBIcObEu-68" value="" style="endArrow=none;html=1;rounded=0;strokeWidth=2;exitX=-0.004;exitY=0.448;exitDx=0;exitDy=0;exitPerimeter=0;" edge="1" parent="1" source="5v9gTzPmGPVGLBIcObEu-69">
          <mxGeometry width="50" height="50" relative="1" as="geometry">
            <mxPoint x="500" y="1180" as="sourcePoint" />
            <mxPoint x="570.62" y="1030" as="targetPoint" />
          </mxGeometry>
        </mxCell>
        <mxCell id="5v9gTzPmGPVGLBIcObEu-69" value="" style="ellipse;whiteSpace=wrap;html=1;rotation=-30;fillColor=none;strokeColor=#FFB570;strokeWidth=3;" vertex="1" parent="1">
          <mxGeometry x="489" y="1061" width="299.37" height="80" as="geometry" />
        </mxCell>
        <mxCell id="5v9gTzPmGPVGLBIcObEu-70" value="" style="endArrow=none;html=1;rounded=0;strokeWidth=2;dashed=1;entryX=0.5;entryY=0;entryDx=0;entryDy=0;entryPerimeter=0;" edge="1" parent="1" target="5v9gTzPmGPVGLBIcObEu-67">
          <mxGeometry width="50" height="50" relative="1" as="geometry">
            <mxPoint x="670" y="1080" as="sourcePoint" />
            <mxPoint x="740.62" y="930" as="targetPoint" />
          </mxGeometry>
        </mxCell>
        <mxCell id="5v9gTzPmGPVGLBIcObEu-73" value="" style="verticalLabelPosition=bottom;verticalAlign=top;html=1;shape=mxgraph.basic.arc;startAngle=0.1414059475382514;endAngle=0.25953786211791813;rotation=45;direction=south;strokeWidth=2;" vertex="1" parent="1">
          <mxGeometry x="430.72999999999996" y="452.39" width="40" height="40" as="geometry" />
        </mxCell>
        <mxCell id="gayCr19osn1YnOFI7T3c-63" value="" style="verticalLabelPosition=bottom;verticalAlign=top;html=1;shape=mxgraph.basic.arc;startAngle=0.13278458755518552;endAngle=0.217846697729455;rotation=40;direction=south;strokeWidth=2;" parent="1" vertex="1">
          <mxGeometry x="648.96" y="801.47" width="40" height="40" as="geometry" />
        </mxCell>
        <mxCell id="5v9gTzPmGPVGLBIcObEu-77" value="" style="verticalLabelPosition=bottom;verticalAlign=top;html=1;shape=mxgraph.basic.arc;startAngle=0.1626199351179021;endAngle=0.25;rotation=0;direction=south;strokeWidth=2;" vertex="1" parent="1">
          <mxGeometry x="643.96" y="793.97" width="50" height="55" as="geometry" />
        </mxCell>
        <mxCell id="5v9gTzPmGPVGLBIcObEu-81" value="" style="endArrow=none;html=1;rounded=0;entryX=1;entryY=0.5;entryDx=0;entryDy=0;exitX=0;exitY=0.5;exitDx=0;exitDy=0;strokeWidth=2;strokeColor=#0000FF;" edge="1" parent="1" source="5v9gTzPmGPVGLBIcObEu-69" target="5v9gTzPmGPVGLBIcObEu-69">
          <mxGeometry width="50" height="50" relative="1" as="geometry">
            <mxPoint x="520.62" y="1180" as="sourcePoint" />
            <mxPoint x="570.62" y="1130" as="targetPoint" />
            <Array as="points">
              <mxPoint x="760" y="1030" />
            </Array>
          </mxGeometry>
        </mxCell>
        <mxCell id="5v9gTzPmGPVGLBIcObEu-82" value="" style="verticalLabelPosition=bottom;verticalAlign=top;html=1;shape=mxgraph.basic.arc;startAngle=0.04784287830869851;endAngle=0.3348350134713375;rotation=135;direction=south;strokeWidth=2;" vertex="1" parent="1">
          <mxGeometry x="653.9599999999999" y="1061" width="40" height="40" as="geometry" />
        </mxCell>
        <mxCell id="5v9gTzPmGPVGLBIcObEu-124" value="" style="endArrow=classic;html=1;rounded=0;strokeWidth=4;endFill=1;" edge="1" parent="1">
          <mxGeometry width="50" height="50" relative="1" as="geometry">
            <mxPoint x="1080" y="510" as="sourcePoint" />
            <mxPoint x="1140" y="510" as="targetPoint" />
          </mxGeometry>
        </mxCell>
        <mxCell id="5v9gTzPmGPVGLBIcObEu-125" value="" style="endArrow=classic;startArrow=classic;html=1;rounded=0;exitX=0;exitY=0.25;exitDx=0;exitDy=0;" edge="1" parent="1">
          <mxGeometry width="50" height="50" relative="1" as="geometry">
            <mxPoint x="1138.68" y="503.00000000000006" as="sourcePoint" />
            <mxPoint x="1190" y="503" as="targetPoint" />
          </mxGeometry>
        </mxCell>
        <mxCell id="5v9gTzPmGPVGLBIcObEu-126" value="&lt;font style=&quot;font-size: 16px;&quot; face=&quot;Times New Roman&quot;&gt;&lt;font style=&quot;font-weight: bold; font-size: 16px;&quot;&gt;△&lt;/font&gt;&lt;b style=&quot;&quot;&gt;&lt;font style=&quot;font-size: 16px;&quot;&gt;L&lt;/font&gt;&lt;/b&gt;&lt;/font&gt;" style="edgeLabel;html=1;align=center;verticalAlign=middle;resizable=0;points=[];fontSize=17;labelBackgroundColor=none;" vertex="1" connectable="0" parent="5v9gTzPmGPVGLBIcObEu-125">
          <mxGeometry x="0.0407" relative="1" as="geometry">
            <mxPoint x="-1" y="-10" as="offset" />
          </mxGeometry>
        </mxCell>
      </root>
    </mxGraphModel>
  </diagram>
</mxfile>
